# xmcd CD database file
#
# Track frame offsets:
#	150
#	17239
#	38017
#	54680
#	72127
#	86266
#	105680
#	119616
#	135019
#	151276
#	168403
#	182691
#
# Disc length: 2679 seconds
#
# Revision: 0
# Processed by: cddbd v1.5.2PL0 Copyright (c) Steve Scherf et al.
# Submitted via: CDex 1.40Beta9
#
DISCID=920a750c
DTITLE=Vassendgutane - Gi Clutch
DYEAR=2002
DGENRE=Country
TTITLE0=Småbrukar På Heiltid
TTITLE1=Fire Kara Frå Ørsta
TTITLE2=Konnølfest
TTITLE3=Ta Dej Ei Løfse
TTITLE4=Data
TTITLE5=Storbonde
TTITLE6=Høgebrua
TTITLE7=Gjødselpumpå
TTITLE8=Køyr Mej Ned Te Vik
TTITLE9=Ski På Føtå
TTITLE10=Dans Før I Tida
TTITLE11=Odelsguten
EXTD=YEAR: 2002 ID3G: 2
EXTT0=
EXTT1=
EXTT2=
EXTT3=
EXTT4=
EXTT5=
EXTT6=
EXTT7=
EXTT8=
EXTT9=
EXTT10=
EXTT11=
PLAYORDER=
